<svg xmlns="http://www.w3.org/2000/svg" width="200" height="27" fill="none" xmlns:v="https://vecta.io/nano"><path d="M34.674 21.464V8.975h2.53v5.29h-.069c0-1.794.383-3.151 1.15-4.071s1.894-1.38 3.381-1.38h.46v2.783h-.874c-1.073 0-1.909.291-2.507.874-.583.567-.874 1.395-.874 2.484v6.509h-3.197zm15.09.437c-1.073 0-2.016-.184-2.829-.552-.797-.368-1.464-.859-2.001-1.472-.521-.629-.92-1.326-1.196-2.093a7.24 7.24 0 0 1-.391-2.346v-.437a7.38 7.38 0 0 1 .391-2.392c.276-.782.675-1.472 1.196-2.07.537-.613 1.196-1.096 1.978-1.449.782-.368 1.687-.552 2.714-.552 1.349 0 2.476.299 3.381.897.92.583 1.61 1.357 2.07 2.323.46.951.69 1.978.69 3.082v1.15H44.704v-1.955h9.062l-.989.966c0-.797-.115-1.48-.345-2.047s-.583-1.004-1.058-1.311c-.46-.307-1.043-.46-1.748-.46s-1.303.161-1.794.483-.866.79-1.127 1.403c-.245.598-.368 1.319-.368 2.162 0 .782.123 1.48.368 2.093.245.598.621 1.073 1.127 1.426.506.337 1.15.506 1.932.506s1.418-.153 1.909-.46c.491-.322.805-.713.943-1.173h2.944c-.184.859-.537 1.61-1.058 2.254s-1.188 1.142-2.001 1.495c-.797.353-1.71.529-2.737.529zm8.674-.437V8.975h2.53v5.359h-.23c0-1.257.161-2.308.483-3.151.322-.859.797-1.503 1.426-1.932.644-.445 1.441-.667 2.392-.667h.138c.966 0 1.763.222 2.392.667.644.429 1.119 1.073 1.426 1.932.322.843.483 1.894.483 3.151h-.805c0-1.257.161-2.308.483-3.151.337-.859.82-1.503 1.449-1.932.644-.445 1.441-.667 2.392-.667h.138c.966 0 1.771.222 2.415.667.644.429 1.127 1.073 1.449 1.932.337.843.506 1.894.506 3.151v7.13h-3.197v-7.429c0-.782-.199-1.403-.598-1.863-.399-.475-.966-.713-1.702-.713s-1.326.245-1.771.736c-.445.475-.667 1.119-.667 1.932v7.337h-3.197v-7.429c0-.782-.199-1.403-.598-1.863-.399-.475-.966-.713-1.702-.713s-1.326.245-1.771.736c-.445.475-.667 1.119-.667 1.932v7.337h-3.197zm28.486.437c-1.104 0-2.078-.176-2.921-.529s-1.556-.828-2.139-1.426c-.583-.613-1.027-1.303-1.334-2.07a6.68 6.68 0 0 1-.437-2.392v-.483c0-.859.153-1.671.46-2.438.322-.782.774-1.472 1.357-2.07.598-.613 1.319-1.089 2.162-1.426.843-.353 1.794-.529 2.852-.529s2.009.176 2.852.529c.843.337 1.556.813 2.139 1.426a5.99 5.99 0 0 1 1.357 2.07c.307.767.46 1.579.46 2.438v.483a6.38 6.38 0 0 1-.46 2.392c-.291.767-.728 1.457-1.311 2.07-.583.598-1.296 1.073-2.139 1.426s-1.809.529-2.898.529zm0-2.737c.782 0 1.441-.169 1.978-.506.537-.353.943-.82 1.219-1.403.276-.598.414-1.273.414-2.024 0-.767-.146-1.441-.437-2.024-.276-.598-.69-1.066-1.242-1.403-.537-.353-1.181-.529-1.932-.529s-1.403.176-1.955.529a3.35 3.35 0 0 0-1.242 1.403c-.291.583-.437 1.257-.437 2.024 0 .751.138 1.426.414 2.024.291.583.705 1.05 1.242 1.403.537.337 1.196.506 1.978.506zm15.035 2.461c-1.15 0-2.101-.146-2.852-.437a3.2 3.2 0 0 1-1.656-1.518c-.368-.721-.552-1.687-.552-2.898l.023-11.316h2.99l-.023 11.523c0 .613.161 1.089.483 1.426.337.322.813.483 1.426.483h1.955v2.737h-1.794zm-7.038-10.304V8.975h8.832v2.346h-8.832zm17.037 10.58c-1.074 0-2.017-.184-2.829-.552-.798-.368-1.465-.859-2.001-1.472a6.92 6.92 0 0 1-1.196-2.093 7.23 7.23 0 0 1-.391-2.346v-.437a7.37 7.37 0 0 1 .391-2.392 6.3 6.3 0 0 1 1.196-2.07 5.7 5.7 0 0 1 1.978-1.449c.782-.368 1.686-.552 2.714-.552 1.349 0 2.476.299 3.381.897.92.583 1.61 1.357 2.07 2.323.46.951.69 1.978.69 3.082v1.15h-11.063v-1.955h9.062l-.989.966c0-.797-.115-1.48-.345-2.047s-.583-1.004-1.058-1.311c-.46-.307-1.043-.46-1.748-.46s-1.304.161-1.794.483-.867.79-1.127 1.403c-.246.598-.368 1.319-.368 2.162 0 .782.122 1.48.368 2.093a3.15 3.15 0 0 0 1.127 1.426c.506.337 1.15.506 1.932.506s1.418-.153 1.909-.46c.49-.322.805-.713.943-1.173h2.944c-.184.859-.537 1.61-1.058 2.254s-1.189 1.142-2.001 1.495c-.798.353-1.71.529-2.737.529zm6.902 4.278v-2.737h.966c.568 0 1.005-.153 1.311-.46s.46-.744.46-1.311V8.975h3.082v12.512c0 1.15-.176 2.062-.529 2.737-.352.69-.897 1.188-1.633 1.495s-1.702.46-2.898.46h-.759zm.92-14.812V8.975h4.899v2.392h-4.899zm2.852-3.979c-.613 0-1.073-.161-1.38-.483-.291-.337-.437-.759-.437-1.265s.146-.92.437-1.242c.307-.322.767-.483 1.38-.483.629 0 1.089.161 1.38.483.307.322.46.736.46 1.242s-.153.928-.46 1.265c-.291.322-.751.483-1.38.483zm11.639 14.513c-1.104 0-2.078-.176-2.921-.529s-1.556-.828-2.139-1.426c-.583-.613-1.027-1.303-1.334-2.07-.291-.767-.437-1.564-.437-2.392v-.483c0-.859.153-1.671.46-2.438a6.46 6.46 0 0 1 1.357-2.07c.598-.613 1.319-1.089 2.162-1.426.843-.353 1.794-.529 2.852-.529s2.009.176 2.852.529a5.96 5.96 0 0 1 2.139 1.426c.598.598 1.05 1.288 1.357 2.07.307.767.46 1.579.46 2.438v.483c0 .828-.153 1.625-.46 2.392-.291.767-.728 1.457-1.311 2.07-.583.598-1.296 1.073-2.139 1.426s-1.809.529-2.898.529zm0-2.737c.782 0 1.441-.169 1.978-.506.537-.353.943-.82 1.219-1.403.276-.598.414-1.273.414-2.024 0-.767-.146-1.441-.437-2.024-.276-.598-.69-1.066-1.242-1.403-.537-.353-1.181-.529-1.932-.529s-1.403.176-1.955.529c-.537.337-.951.805-1.242 1.403-.291.583-.437 1.257-.437 2.024 0 .751.138 1.426.414 2.024a3.54 3.54 0 0 0 1.242 1.403c.537.337 1.196.506 1.978.506zm16.945 2.714c-1.028 0-1.932-.215-2.714-.644-.782-.445-1.396-1.089-1.84-1.932s-.69-1.863-.736-3.059h.483v5.221h-2.53V4.674h3.197v8.395l-.851 1.311c.061-1.288.314-2.361.759-3.22.46-.859 1.073-1.503 1.839-1.932s1.634-.644 2.6-.644c.858 0 1.64.161 2.346.483s1.311.774 1.816 1.357a5.74 5.74 0 0 1 1.151 2.001c.276.767.414 1.602.414 2.507v.483c0 .905-.138 1.748-.414 2.53a6.32 6.32 0 0 1-1.196 2.07 5.67 5.67 0 0 1-1.886 1.38c-.721.322-1.534.483-2.438.483zm-.713-2.691c.69 0 1.288-.169 1.794-.506.521-.353.927-.828 1.219-1.426s.437-1.288.437-2.07c0-.797-.146-1.487-.437-2.07s-.698-1.035-1.219-1.357c-.506-.322-1.104-.483-1.794-.483-.629 0-1.212.138-1.748.414a3.37 3.37 0 0 0-1.288 1.219c-.322.537-.483 1.181-.483 1.932v.92c0 .721.168 1.334.506 1.84a3.44 3.44 0 0 0 1.311 1.173 3.67 3.67 0 0 0 1.702.414zm13.989 2.668c-1.718 0-3.067-.36-4.048-1.081-.966-.736-1.472-1.748-1.518-3.036h2.875c.046.429.283.82.713 1.173s1.104.529 2.024.529c.766 0 1.372-.138 1.817-.414.46-.276.69-.652.69-1.127 0-.414-.177-.744-.529-.989-.338-.245-.92-.406-1.748-.483l-1.104-.115c-1.396-.153-2.469-.552-3.22-1.196s-1.127-1.503-1.127-2.576c0-.859.214-1.579.644-2.162s1.019-1.02 1.771-1.311c.766-.307 1.64-.46 2.622-.46 1.533 0 2.775.337 3.726 1.012s1.449 1.664 1.495 2.967h-2.875c-.031-.429-.246-.797-.644-1.104s-.974-.46-1.725-.46c-.675 0-1.196.13-1.564.391s-.552.598-.552 1.012c0 .399.145.705.437.92.306.215.797.36 1.472.437l1.104.115c1.472.153 2.622.56 3.45 1.219.843.659 1.265 1.549 1.265 2.668 0 .828-.23 1.549-.69 2.162-.445.598-1.074 1.066-1.886 1.403s-1.771.506-2.875.506zm7.383-.391v-3.68h3.588v3.68h-3.588zm7.281 0V8.975h3.197v12.489h-3.197zm-1.748-10.097V8.975h4.945v2.392h-4.945zm2.921-3.887c-.628 0-1.096-.161-1.403-.483-.291-.337-.437-.751-.437-1.242 0-.521.146-.943.437-1.265.307-.322.775-.483 1.403-.483s1.089.161 1.38.483.437.744.437 1.265c0 .491-.145.905-.437 1.242-.291.322-.751.483-1.38.483zm11.712 14.421c-1.104 0-2.078-.176-2.921-.529s-1.557-.828-2.139-1.426c-.583-.613-1.028-1.303-1.334-2.07-.292-.767-.437-1.564-.437-2.392v-.483c0-.859.153-1.671.46-2.438a6.46 6.46 0 0 1 1.357-2.07c.598-.613 1.318-1.089 2.162-1.426.843-.353 1.794-.529 2.852-.529s2.008.176 2.852.529a5.96 5.96 0 0 1 2.139 1.426c.598.598 1.05 1.288 1.357 2.07.306.767.46 1.579.46 2.438v.483c0 .828-.154 1.625-.46 2.392a6.18 6.18 0 0 1-1.311 2.07c-.583.598-1.296 1.073-2.139 1.426s-1.81.529-2.898.529zm0-2.737c.782 0 1.441-.169 1.978-.506a3.38 3.38 0 0 0 1.219-1.403c.276-.598.414-1.273.414-2.024 0-.767-.146-1.441-.437-2.024-.276-.598-.69-1.066-1.242-1.403-.537-.353-1.181-.529-1.932-.529s-1.403.176-1.955.529c-.537.337-.951.805-1.242 1.403-.292.583-.437 1.257-.437 2.024 0 .751.138 1.426.414 2.024a3.54 3.54 0 0 0 1.242 1.403c.536.337 1.196.506 1.978.506z" fill="#1d0d5b"/><g stroke-width="4" stroke-linecap="round" stroke-linejoin="round"><path d="M2.02576 22.7764V15.3396C2.02576 11.4725 5.15795 8.34033 9.02507 8.34033C12.8922 8.34033 16.0244 11.4725 16.0244 15.3396" stroke="url(#A)"/><path d="M22.8049 8.34033V15.7366C22.8049 19.6261 19.6727 22.7764 15.8056 22.7764C11.9385 22.7764 8.80627 19.6261 8.80627 15.7366" stroke="url(#B)"/></g><path d="M22.836 4.685a2 2 0 0 0 0-4 2 2 0 0 0 0 4z" fill="#016cf9"/><defs><linearGradient id="A" x1=".057" y1="15.558" x2="17.993" y2="15.558" gradientUnits="userSpaceOnUse"><stop stop-color="#016cf9"/><stop offset="1" stop-color="#99c6ff"/></linearGradient><linearGradient id="B" x1="6.838" y1="15.556" x2="24.774" y2="15.556" gradientUnits="userSpaceOnUse"><stop stop-color="#99c6ff"/><stop offset="1" stop-color="#016cf9"/></linearGradient></defs></svg>