<svg width="57" height="9" viewBox="0 0 57 9" fill="none" xmlns="http://www.w3.org/2000/svg">
<g id="Fast_Company_logo 1" clip-path="url(#clip0_5106_37078)">
<g id="Group">
<g id="svg_1">
<path id="svg_2" d="M49.9576 1.23009C49.9576 0.670962 50.1305 0.478161 50.4187 0.478161C50.7069 0.478161 50.9375 0.593842 51.2065 1.23009L52.8398 4.95116V7.30334C52.8398 7.86247 52.6092 8.01671 51.9751 8.09383V8.24807H54.9918V8.09383C54.3385 8.01671 54.1272 7.84319 54.1272 7.30334V4.95116L55.7028 1.36505C56.0102 0.670962 56.3177 0.516721 56.7788 0.4396V0.285359H54.5691V0.4396C55.3185 0.516721 55.5875 0.728803 55.3761 1.23009L53.9927 4.41132L52.5708 1.15297C52.3786 0.709523 52.4939 0.574561 53.3201 0.45888V0.304639H48.5741V0.45888C49.3235 0.574561 49.554 0.709523 49.554 1.24937V5.60669L46.0762 0.304639H44.366V0.45888C44.9233 0.536001 45.0962 0.709523 45.0962 1.24937V7.32262C45.0962 7.88175 44.9425 8.07455 44.7503 8.07455C44.5774 8.07455 44.4813 7.99743 44.2315 7.32262L41.6567 0.266079H41.503L39.0243 7.01414C38.7553 7.76607 38.3326 8.01671 37.9099 8.11311V8.26735H40.1772V8.11311C39.3894 8.03599 39.1396 7.72751 39.3125 7.22622L39.8698 5.68381H42.214L42.752 7.12982C42.9826 7.78535 42.8481 7.97815 42.1756 8.09383V8.24807H46.4797V8.09383C45.7303 7.97815 45.4997 7.84319 45.4997 7.30334V1.86633L49.7078 8.26735H49.9576V1.23009ZM19.6173 4.25708C19.6173 1.78921 20.7895 0.497441 22.1537 0.497441C22.9607 0.497441 23.4795 0.670962 23.787 0.998725C24.0175 1.23009 24.1905 1.55785 24.3826 2.07842H24.5363V0.42032C23.7485 0.266079 23.0376 0.169678 22.3266 0.169678C20.2707 0.169678 18.1378 1.50001 18.1378 4.25708C18.1378 7.01414 20.2707 8.34447 22.1921 8.34447C23.0376 8.34447 23.787 8.20951 24.4979 7.99743L24.7285 6.43573L24.594 6.39717C24.4211 6.72494 24.2097 7.01414 23.9791 7.26478C23.4795 7.76607 22.807 8.03599 22.1345 8.03599C20.8279 8.01671 19.6173 6.7635 19.6173 4.25708ZM36.6609 4.48844C36.488 4.48844 36.2574 4.46916 36.0268 4.4306V0.574561H36.6609C37.7177 0.574561 38.1789 1.13369 38.1789 2.52186C38.1789 3.92931 37.6985 4.48844 36.6609 4.48844ZM11.9699 0.285359V2.1941H12.1236C12.3541 0.979445 12.8345 0.593842 13.6415 0.593842H14.0258V7.30334C14.0258 7.86247 13.7953 8.01671 13.1612 8.09383V8.24807H16.1779V8.09383C15.5246 8.01671 15.3132 7.84319 15.3132 7.30334V0.574561H15.6975C16.5045 0.574561 16.9849 0.960165 17.2155 2.17482H17.3692V0.266079H11.9699V0.285359ZM9.568 8.34447C10.8746 8.34447 12.2581 7.59255 12.2581 6.05013C12.2581 5.14396 11.7777 4.39204 10.9323 3.92931L9.4335 3.10026C8.64569 2.65682 8.41511 2.25194 8.41511 1.67353C8.41511 1.01801 8.89548 0.497441 9.79858 0.497441C10.2405 0.497441 10.5672 0.613122 10.8362 0.863764C11.0668 1.09513 11.2973 1.48073 11.5087 2.17482H11.6432V0.42032C11.1052 0.266079 10.548 0.169678 9.89465 0.169678C8.60726 0.169678 7.64652 0.979445 7.64652 2.34834C7.64652 3.21595 8.12689 4.00643 8.9147 4.46916L10.2982 5.24036C11.086 5.68381 11.3358 6.10797 11.3358 6.74422C11.3358 7.49615 10.5672 8.03599 9.72172 8.03599C9.16449 8.03599 8.70333 7.84319 8.37668 7.51543C8.16532 7.30334 7.93474 6.97558 7.78102 6.55142H8.68412V6.39717C8.43433 6.33933 8.28061 6.30077 8.06924 5.79949L6.30148 1.57713H6.14776L4.41843 5.70309C4.18785 6.26221 4.03413 6.35861 3.76512 6.39717V6.55142H5.30231V6.39717C4.74508 6.33933 4.59136 6.06941 4.72586 5.72237L4.99487 5.06684H6.55127L6.89714 5.87661C7.05086 6.24293 6.82028 6.33933 6.26305 6.37789V6.53214H7.4928V8.05527C8.10767 8.22879 8.89548 8.34447 9.568 8.34447ZM29.0903 8.26735L31.3768 1.88561L31.5498 7.32262C31.569 7.86247 31.3576 8.01671 30.7043 8.09383V8.24807H37.0068V8.09383C36.2574 7.97815 36.0268 7.84319 36.0268 7.30334V4.73908C36.2766 4.77764 36.5264 4.79692 36.7185 4.79692C38.2365 4.79692 39.5431 4.23779 39.5431 2.54114C39.5431 0.844484 38.2365 0.285359 36.7185 0.285359H34.0093V0.4396C34.5665 0.516721 34.7394 0.690242 34.7394 1.23009V7.30334C34.7394 7.86247 34.5088 8.09383 33.8747 8.09383H33.8555C33.183 8.09383 32.8948 7.84319 32.8756 7.32262L32.645 1.24937C32.6258 0.690242 32.8179 0.516721 33.4136 0.4396V0.285359H31.5498L29.513 6.01157L27.4762 0.285359H25.4779V0.4396C26.0735 0.516721 26.2657 0.709523 26.2465 1.24937L26.0351 7.07198C26.0159 7.65039 25.7084 7.99743 25.1512 8.09383V8.24807H27.2648V8.09383C26.7268 8.01671 26.4194 7.66967 26.4386 7.07198L26.6115 1.76993L28.9365 8.24807L29.0903 8.26735ZM22.9607 6.58998C23.9791 6.58998 25.2857 5.68381 25.2857 4.25708C25.2857 2.84962 23.9983 1.92417 22.9607 1.92417C21.9423 1.92417 20.6357 2.83034 20.6357 4.25708C20.6357 5.66453 21.9231 6.58998 22.9607 6.58998ZM22.9607 2.25194C23.614 2.25194 24.056 2.79178 24.056 4.25708C24.056 5.74165 23.5948 6.26221 22.9607 6.26221C22.3074 6.26221 21.8655 5.72237 21.8655 4.25708C21.8655 2.7725 22.3074 2.25194 22.9607 2.25194ZM42.1179 5.35605H39.9851L41.0419 2.42546L42.1179 5.35605ZM6.4552 4.75836H5.14859L5.80189 3.1581L6.4552 4.75836ZM3.95727 5.16324H4.11099V2.7725H3.95727C3.70748 3.62083 3.45769 3.81363 2.99653 3.81363H2.11265V0.574561H3.51533C4.32235 0.574561 4.80272 0.960165 5.0333 2.17482H5.18702V0.266079H0.0950928V0.42032C0.652323 0.497441 0.825256 0.670962 0.825256 1.21081V7.28406C0.825256 7.84319 0.652323 7.99743 0.0950928 8.07455V8.22879H3.0926V8.07455C2.34323 7.95887 2.11265 7.82391 2.11265 7.28406V4.10283H2.99653C3.43847 4.12211 3.70748 4.31492 3.95727 5.16324Z" fill="black"/>
</g>
</g>
</g>
<defs>
<clipPath id="clip0_5106_37078">
<rect width="56.6837" height="8.09767" fill="white" transform="translate(0.0950928 0.169678)"/>
</clipPath>
</defs>
</svg>
